# xmcd CD database file
#
# Track frame offsets:
#	150
#	24450
#	42150
#	58875
#	84900
#	108975
#	129750
#	153300
#	186600
#	209850
#	233625
#
# Disc length: 3422 seconds
#
# Revision: 0
# Processed by: cddbd v1.5PL3 Copyright (c) Steve Scherf et al.
# Submitted via: CDex 1.51
#
DISCID=910d5c0b
DTITLE=Elsa Valle Latin Jazz Syndicate - Mi Gente
DYEAR=2004
DGENRE=Jazz
TTITLE0=Mi gente (Elsa Valle)
TTITLE1=Mi son (Elsa Valle)
TTITLE2=Rumbantela (Elsa Valle)
TTITLE3=Puerto Parade (E. Salvador)
TTITLE4=Drume Negrita (Folk Song)
TTITLE5=Reloj (Elsa Valle)
TTITLE6=Sin Ti (Elsa Valle)
TTITLE7=Ekua (Folk Song)
TTITLE8=Caravan (D. Ellington, Juan Tisol)
TTITLE9=Quedate (Elsa Valle)
TTITLE10=Summertime (G. Gerswin)
EXTD=YEAR: 2004
EXTT0=
EXTT1=
EXTT2=
EXTT3=
EXTT4=
EXTT5=
EXTT6=
EXTT7=
EXTT8=
EXTT9=
EXTT10=
PLAYORDER=
